# xmcd
#
# Track frame offsets:
#	150
#	14725
#	29649
#	42523
#	63924
#	82539
#	98952
#	112314
#	123948
#	140390
#	160662
#	188475
#
# Disc length: 2833 seconds
#
# Revision: 0
# Processed by: cddbd v1.5PL3 Copyright (c) Steve Scherf et al.
# Submitted via: dBpowerAMP V4.0
#
DISCID=9b0b0f0c
DTITLE=Honky Tonk Jukebox Band - Honky Tonk Jukebox Special
DYEAR=1900
DGENRE=Country
TTITLE0=Pukin' In The Parking Lot
TTITLE1=Coyote Ugly
TTITLE2=Hey, Honey I'm Home
TTITLE3=Fat Thighed Woman
TTITLE4=Sittin' On My Face
TTITLE5=Itty Bitty Titties
TTITLE6=I Gave Her The Ring (She Gave Me The Finger)
TTITLE7=Ballad Of T.J.'s
TTITLE8=Honky Tonk Asshole
TTITLE9=Let Me In Your Pants
TTITLE10=Itty Bitty  Titties (Live)
TTITLE11=DATA
EXTD=
EXTT0=
EXTT1=
EXTT2=
EXTT3=
EXTT4=
EXTT5=
EXTT6=
EXTT7=
EXTT8=
EXTT9=
EXTT10=
EXTT11=
PLAYORDER=
